{"title":"Furious.7.2015.720p.WEBRip.KORSUB.XviD.MP3-RARBG","uid":11899087,"size":4121642044,"categoryP":"video","categoryS":"movies","magnet":"?xt=urn:btih:67020344aa1d82e2cea7b358782100a9256a14ac&amp;dn=Furious.7.2015.720p.WEBRip.KORSUB.XviD.MP3-RARBG&amp;tr=udp%3A%2F%2Ftracker.openbittorrent.com%3A80&amp;tr=udp%3A%2F%2Fopen.demonii.com%3A1337&amp;tr=udp%3A%2F%2Ftracker.coppersurfer.tk%3A6969&amp;tr=udp%3A%2F%2Fexodus.desync.com%3A6969","seeders":267,"leechers":39,"uploader":"vickey1992","files":4,"time":1431255497,"description":"Format                                   : AVI\nFormat/Info                              : Audio Video Interleave\nFormat profile                           : OpenDML\nFile size                                : 3.84 GiB\nDuration                                 : 2h 17mn\nOverall bit rate                         : 4 004 Kbps\nMovie name                               : RARBG.COM - Furious.7.2015.720p.WEBRip.KORSUB.XviD.MP3-RARBG\nWriting library                          : VirtualDub build 35491/release\nComment                                  : RARBG.COM - Furious.7.2015.720p.WEBRip.KORSUB.XviD.MP3-RARBG\n\nVideo\nID                                       : 0\nFormat                                   : MPEG-4 Visual\nFormat profile                           : Simple@L5\nFormat settings, BVOP                    : No\nFormat settings, QPel                    : No\nFormat settings, GMC                     : No warppoints\nFormat settings, Matrix                  : Default (H.263)\nCodec ID                                 : XVID\nCodec ID/Hint                            : XviD\nDuration                                 : 2h 17mn\nBit rate                                 : 3 798 Kbps\nWidth                                    : 1 280 pixels\nHeight                                   : 534 pixels\nDisplay aspect ratio                     : 2.40:1\nFrame rate                               : 29.970 fps\nColor space                              : YUV\nChroma subsampling                       : 4:2:0\nBit depth                                : 8 bits\nScan type                                : Progressive\nCompression mode                         : Lossy\nBits/(Pixel*Frame)                       : 0.185\nStream size                              : 3.64 GiB (95%)\nWriting library                          : Lavc56.13.100\n\nAudio\nID                                       : 1\nFormat                                   : MPEG Audio\nFormat version                           : Version 1\nFormat profile                           : Layer 3\nMode                                     : Joint stereo\nCodec ID                                 : 55\nCodec ID/Hint                            : MP3\nDuration                                 : 2h 17mn\nBit rate mode                            : Constant\nBit rate                                 : 192 Kbps\nChannel(s)                               : 2 channels\nSampling rate                            : 44.1 KHz\nCompression mode                         : Lossy\nStream size                              : 188 MiB (5%)\nAlignment                                : Aligned on interleaves\nInterleave, duration                     : 26 ms (0.78 video frame)\nInterleave, preload duration             : 522 ms\nNotes:\nCropped black bars. Thats all.\nGreetz to all! \nFast.and.Furious.7.2015.720p.WEBRip.KORSUB.XviD.MP3-RARBG\tPlay trailer","torrent":{"xt":"urn:btih:67020344aa1d82e2cea7b358782100a9256a14ac","amp;dn":"Furious.7.2015.720p.WEBRip.KORSUB.XviD.MP3-RARBG","amp;tr":["udp%3A%2F%2Ftracker.openbittorrent.com%3A80","udp%3A%2F%2Fopen.demonii.com%3A1337","udp%3A%2F%2Ftracker.coppersurfer.tk%3A6969","udp%3A%2F%2Fexodus.desync.com%3A6969"],"infoHash":"67020344aa1d82e2cea7b358782100a9256a14ac","infoHashBuffer":{"type":"Buffer","data":[103,2,3,68,170,29,130,226,206,167,179,88,120,33,0,169,37,106,20,172]},"announce":[],"urlList":[]}}